<svg width="1163" height="231" viewBox="0 0 1163 231" fill="none" xmlns="http://www.w3.org/2000/svg">
<path d="M158.203 181.039C158.203 181.039 137.559 145.558 133.855 139.194C138.069 137.909 142.557 136.774 144.422 133.554C147.53 128.189 141.997 119.387 143.45 113.637C144.946 107.718 153.78 102.596 153.78 96.5802C153.78 90.7188 144.647 83.8712 143.15 77.9872C141.687 72.2374 147.203 63.4265 144.085 58.0678C140.967 52.7085 130.582 53.1488 126.307 49.0352C121.908 44.8019 121.922 34.4443 116.616 31.6074C111.289 28.7598 102.631 34.5147 96.7168 33.1515C90.8695 31.8039 85.6455 23 79.5378 23C73.3396 23 63.4812 32.9866 61.9351 33.346C56.0234 34.7203 47.3547 28.9795 42.0332 31.8391C36.7328 34.6856 36.7654 45.0441 32.3748 49.2845C28.1068 53.4057 17.7211 52.9845 14.6127 58.3498C11.5048 63.714 17.037 72.5134 15.5848 78.2672C14.1287 84.0356 4.98751 89.8804 4.98751 96.5515C4.98751 102.568 13.8432 107.674 15.3486 113.589C16.8118 119.339 11.2962 128.149 14.4142 133.51C16.1116 136.428 19.9629 137.625 23.8092 138.777C24.258 138.911 25.107 139.413 24.532 140.251C21.9006 144.793 0.72153 181.345 0.72153 181.345C-0.963347 184.253 0.404861 186.745 3.76104 186.886L20.1891 187.571C23.5453 187.712 27.7555 190.151 29.5469 192.993L38.3131 206.903C40.1045 209.744 42.947 209.691 44.6314 206.784C44.6314 206.784 69.1591 164.438 69.1692 164.426C69.6613 163.851 70.1559 163.969 70.3926 164.17C73.0763 166.455 76.8175 168.735 79.9399 168.735C83.0021 168.735 85.8375 166.589 88.6423 164.196C88.8705 164.001 89.4259 163.603 89.832 164.43C89.8386 164.443 114.339 206.558 114.339 206.558C116.028 209.461 118.871 209.51 120.657 206.665L129.399 192.738C131.185 189.895 135.391 187.446 138.747 187.3L155.173 186.584C158.528 186.437 159.892 183.941 158.203 181.039ZM106.687 142.947C88.5236 153.515 66.7213 152.382 50.0685 141.878C25.6675 126.248 17.6387 93.9161 32.3075 68.5982C47.1436 42.9883 79.757 33.9517 105.598 48.0254C105.733 48.0992 105.868 48.1756 106.002 48.251C106.194 48.3571 106.385 48.4647 106.575 48.5732C114.547 53.1695 121.46 59.8401 126.41 68.3484C141.539 94.3534 132.692 127.819 106.687 142.947Z" fill="#FCCB70"/>
<path d="M102.533 56.2266C102.458 56.1828 102.382 56.1421 102.306 56.0989C88.5025 48.1098 70.9088 47.5257 56.1636 56.1044C34.2824 68.8345 26.8366 96.9924 39.5667 118.873C43.4512 125.55 48.7742 130.88 54.9156 134.706C55.4378 135.036 55.9661 135.362 56.5059 135.674C78.4109 148.365 106.554 140.868 119.244 118.964C131.933 97.0592 124.438 68.9169 102.533 56.2266ZM108.013 92.0357L100.343 99.5116C97.9679 101.827 96.4831 106.397 97.0445 109.667L98.8551 120.223C99.416 123.492 97.4728 124.904 94.5363 123.361L85.0559 118.377C82.1194 116.833 77.3146 116.833 74.3781 118.377L64.8982 123.361C61.9617 124.904 60.018 123.492 60.5789 120.223L62.3894 109.667C62.9504 106.397 61.4656 101.827 59.0901 99.5116L51.4207 92.0357C49.0446 89.7205 49.7876 87.4355 53.0703 86.958L63.6692 85.4179C66.952 84.9409 70.8395 82.1165 72.3077 79.1418L77.0477 69.5377C78.5159 66.563 80.9186 66.563 82.3863 69.5377L87.1268 79.1418C88.595 82.1165 92.482 84.9409 95.7653 85.4179L106.364 86.958C109.646 87.4355 110.389 89.7205 108.013 92.0357Z" fill="#FCCB70"/>
<path d="M251.306 181C249.05 181 247.327 180.436 246.136 179.308C244.945 178.117 244.35 176.394 244.35 174.138V69.516H206.75C204.494 69.516 202.771 68.952 201.58 67.824C200.389 66.6333 199.794 64.91 199.794 62.654C199.794 60.398 200.389 58.6747 201.58 57.484C202.771 56.2933 204.494 55.698 206.75 55.698H295.862C298.118 55.698 299.81 56.2933 300.938 57.484C302.129 58.6747 302.724 60.398 302.724 62.654C302.724 64.91 302.129 66.6333 300.938 67.824C299.81 68.952 298.118 69.516 295.862 69.516H258.168V174.138C258.168 176.269 257.573 177.961 256.382 179.214C255.191 180.405 253.499 181 251.306 181ZM316.502 181C311.865 181 309.546 178.681 309.546 174.044V94.708C309.546 90.1333 311.865 87.846 316.502 87.846C321.077 87.846 323.364 90.1333 323.364 94.708V104.484C326.936 99.032 331.636 94.896 337.464 92.076C343.355 89.256 350.186 87.846 357.956 87.846C362.594 87.846 364.912 90.1333 364.912 94.708C364.912 99.3453 362.594 101.664 357.956 101.664C346.99 101.664 338.592 103.857 332.764 108.244C326.936 112.568 323.803 118.49 323.364 126.01V174.044C323.364 178.681 321.077 181 316.502 181ZM463.172 87.846C467.809 87.846 470.128 90.1333 470.128 94.708V174.044C470.128 178.681 467.809 181 463.172 181C458.597 181 456.31 178.681 456.31 174.044V169.062C449.855 177.021 439.734 181 425.948 181H420.684C408.464 181 399.44 178.086 393.612 172.258C387.784 166.367 384.87 157.312 384.87 145.092V94.708C384.87 90.1333 387.157 87.846 391.732 87.846C396.369 87.846 398.688 90.1333 398.688 94.708V145.092C398.688 153.552 400.254 159.349 403.388 162.482C406.584 165.615 412.349 167.182 420.684 167.182H425.948C434.22 167.182 441.144 166.085 446.722 163.892C452.299 161.636 455.495 158.221 456.31 153.646V94.708C456.31 90.1333 458.597 87.846 463.172 87.846ZM529.26 180.906C521.364 180.906 515.191 179.277 510.742 176.018C506.292 172.697 503.504 167.715 502.376 161.072C502 158.816 502.438 157.03 503.692 155.714C505.008 154.398 506.825 153.74 509.144 153.74C511.337 153.74 512.935 154.304 513.938 155.432C515.003 156.56 515.849 158.252 516.476 160.508C517.165 163.077 518.481 164.832 520.424 165.772C522.366 166.649 525.312 167.088 529.26 167.088H560.092C565.293 167.088 568.802 166.211 570.62 164.456C572.5 162.639 573.44 159.067 573.44 153.74C573.44 148.413 572.5 144.841 570.62 143.024C568.802 141.207 565.293 140.298 560.092 140.298H529.73C521.019 140.298 514.47 138.136 510.084 133.812C505.697 129.425 503.504 122.877 503.504 114.166C503.504 105.267 505.634 98.656 509.896 94.332C514.22 89.9453 520.831 87.752 529.73 87.752H559.152C573.69 87.752 582.119 93.9873 584.438 106.458C584.814 108.777 584.344 110.563 583.028 111.816C581.774 113.069 579.988 113.696 577.67 113.696C575.539 113.696 573.941 113.132 572.876 112.004C571.81 110.876 570.996 109.278 570.432 107.21C569.805 105.017 568.614 103.544 566.86 102.792C565.168 101.977 562.598 101.57 559.152 101.57H529.73C524.716 101.57 521.395 102.385 519.766 104.014C518.136 105.643 517.322 109.027 517.322 114.166C517.322 118.929 518.168 122.187 519.86 123.942C521.614 125.634 524.904 126.48 529.73 126.48H560.092C569.241 126.48 576.04 128.736 580.49 133.248C585.002 137.76 587.258 144.591 587.258 153.74C587.258 162.889 585.002 169.72 580.49 174.232C576.04 178.681 569.241 180.906 560.092 180.906H529.26ZM658.369 181C646.274 181 637.375 178.149 631.673 172.446C625.97 166.743 623.119 157.876 623.119 145.844V101.664H613.249C608.611 101.664 606.293 99.3453 606.293 94.708C606.293 90.1333 608.611 87.846 613.249 87.846H623.119V71.96C623.119 67.3227 625.406 65.004 629.981 65.004C634.618 65.004 636.937 67.3227 636.937 71.96V87.846H659.215C663.789 87.846 666.077 90.1333 666.077 94.708C666.077 99.3453 663.789 101.664 659.215 101.664H636.937V145.844C636.937 154.116 638.441 159.756 641.449 162.764C644.519 165.709 650.159 167.182 658.369 167.182C660.625 167.182 662.348 167.746 663.539 168.874C664.729 169.939 665.325 171.663 665.325 174.044C665.325 178.681 663.006 181 658.369 181Z" fill="#F9C76B"/>
<path d="M701.498 181C696.861 181 694.542 178.681 694.542 174.044V62.56C694.542 57.9227 696.861 55.604 701.498 55.604H745.49C756.708 55.604 765.262 58.5807 771.152 64.534C777.043 70.4247 779.988 78.9787 779.988 90.196V95.836C779.988 107.053 777.043 115.607 771.152 121.498C765.262 127.389 756.708 130.334 745.49 130.334H708.36V174.044C708.36 178.681 706.073 181 701.498 181ZM708.36 116.516H745.49C752.885 116.516 758.18 114.918 761.376 111.722C764.572 108.526 766.17 103.231 766.17 95.836V90.196C766.17 82.8013 764.572 77.506 761.376 74.31C758.18 71.0513 752.885 69.422 745.49 69.422H708.36V116.516ZM843.853 181C829.753 181 819.35 177.679 812.645 171.036C806.002 164.331 802.681 153.928 802.681 139.828V96.588C802.681 82.3627 806.002 71.96 812.645 65.38C819.35 58.7373 829.721 55.4787 843.759 55.604H866.413C880.513 55.604 890.884 58.9253 897.527 65.568C904.169 72.2107 907.491 82.6133 907.491 96.776V139.828C907.491 153.928 904.169 164.331 897.527 171.036C890.884 177.679 880.513 181 866.413 181H843.853ZM843.853 167.182H866.413C873.243 167.182 878.633 166.336 882.581 164.644C886.591 162.952 889.443 160.132 891.135 156.184C892.827 152.173 893.673 146.721 893.673 139.828V96.776C893.673 89.9453 892.827 84.556 891.135 80.608C889.443 76.5973 886.591 73.746 882.581 72.054C878.633 70.2993 873.243 69.422 866.413 69.422H843.759C836.928 69.3593 831.539 70.174 827.591 71.866C823.643 73.4953 820.791 76.3153 819.037 80.326C817.345 84.274 816.499 89.6947 816.499 96.588V139.828C816.499 146.721 817.345 152.173 819.037 156.184C820.729 160.132 823.549 162.952 827.497 164.644C831.507 166.336 836.959 167.182 843.853 167.182ZM932.496 180.342C928.109 178.587 926.793 175.548 928.548 171.224L973.95 61.056C975.517 57.4213 978.086 55.604 981.658 55.604H982.128C985.7 55.792 988.144 57.6093 989.46 61.056L1035.33 171.224C1037.09 175.548 1035.83 178.587 1031.57 180.342C1027.25 182.034 1024.24 180.781 1022.55 176.582L1011.55 150.262H952.048L941.426 176.582C939.671 180.843 936.695 182.097 932.496 180.342ZM957.5 136.444H1005.91L981.376 77.506L957.5 136.444ZM1068.69 181C1064.05 181 1061.73 178.681 1061.73 174.044V62.56C1061.73 57.9227 1064.05 55.604 1068.69 55.604H1112.68C1123.9 55.604 1132.45 58.5807 1138.34 64.534C1144.23 70.4247 1147.18 78.9787 1147.18 90.196V95.836C1147.18 107.053 1144.23 115.607 1138.34 121.498C1132.45 127.389 1123.9 130.334 1112.68 130.334H1075.55V174.044C1075.55 178.681 1073.26 181 1068.69 181ZM1075.55 116.516H1112.68C1120.07 116.516 1125.37 114.918 1128.56 111.722C1131.76 108.526 1133.36 103.231 1133.36 95.836V90.196C1133.36 82.8013 1131.76 77.506 1128.56 74.31C1125.37 71.0513 1120.07 69.422 1112.68 69.422H1075.55V116.516Z" fill="#8076FA"/>
</svg>
